<svg width="12" height="12" viewBox="0 0 12 12" fill="none" xmlns="http://www.w3.org/2000/svg">
<path d="M11.5 6C11.5 9.31371 9.31371 12 6 12C2.68629 12 0 9.31371 0 6C0 2.68629 2.68629 0 6 0C9.31371 0 11.5 2.68629 11.5 6Z" fill="white"/>
<path d="M5.38274 5.67997L7.15427 3.80406C7.32964 3.61836 7.32607 3.32072 7.14631 3.13927C6.96654 2.95783 6.67865 2.96128 6.50331 3.14698L4.1566 5.63199C3.99123 5.80706 3.99459 6.08768 4.16411 6.25874L6.56967 8.68682C6.74942 8.86826 7.03731 8.86481 7.21267 8.67911C7.38804 8.49342 7.38447 8.19577 7.20471 8.01433L5.38874 6.18139C5.25317 6.04455 5.25048 5.82003 5.38274 5.67997Z" fill="#22282C"/>
</svg>
