<svg width="56" height="56" viewBox="0 0 56 56" fill="none" xmlns="http://www.w3.org/2000/svg">
<path d="M55.9992 25.8553C55.9992 25.9575 55.9992 26.0743 55.9992 26.1765C55.9262 26.2494 55.9554 26.3516 55.9408 26.4392C55.9554 26.5706 55.897 26.7166 55.9992 26.8333C55.9992 27.0085 55.9992 27.1983 55.9992 27.3735C55.9116 27.8114 55.9116 28.2493 55.9992 28.6873C55.9992 28.9354 55.9992 29.1982 55.9992 29.4463C55.9262 29.5485 55.9262 29.6653 55.9992 29.7675C55.9992 29.9427 55.9992 30.1324 55.9992 30.3076C55.8677 31.0813 55.897 31.8841 55.8093 32.6724C55.5609 34.8183 54.9181 36.862 54.0853 38.8472C52.5658 42.4821 50.3743 45.6498 47.5106 48.3941C43.5951 52.1457 38.9636 54.5252 33.6893 55.6638C32.6958 55.8828 31.6731 55.8536 30.665 55.9265C30.5481 55.9411 30.402 55.8828 30.2997 55.9849C30.1974 55.9849 30.0805 55.9849 29.9783 55.9849C29.876 55.9119 29.7591 55.9119 29.6568 55.9849C29.4377 55.9849 29.2185 55.9849 28.9994 55.9849C28.7802 55.8974 28.5611 55.8974 28.3419 55.9849C28.0205 55.9849 27.6845 55.9849 27.363 55.9849C27.1439 55.8974 26.9247 55.8974 26.7056 55.9849C26.3841 55.9849 26.0481 55.9849 25.7267 55.9849C24.9377 55.8536 24.1488 55.8828 23.3598 55.7952C20.8907 55.5032 18.5676 54.7295 16.3176 53.7077C13.8485 52.5837 11.5547 51.1677 9.53845 49.3576C7.98976 47.9708 6.54334 46.4964 5.31607 44.8031C3.519 42.3215 2.11641 39.6355 1.16674 36.7306C0.46545 34.5993 0.0855818 32.4243 0.0271406 30.1616C-0.0166904 27.972 -0.0313007 25.7823 0.173244 23.5927C0.363178 21.6366 0.94759 19.7389 1.64888 17.8996C2.86154 14.7902 4.52712 11.9291 6.74788 9.4329C9.84527 5.95865 13.5563 3.31646 17.9394 1.65233C19.9118 0.907845 21.9426 0.280144 24.0611 0.134168C26.0335 -0.0118094 28.0059 -0.0264071 29.9783 0.0319837C31.8484 0.0903745 33.6893 0.294742 35.501 0.791064C39.475 1.90049 43.0545 3.7398 46.1957 6.41118C50.2866 9.90002 53.1941 14.1771 54.8888 19.2717C55.5609 21.3008 55.9408 23.3737 55.9554 25.505C55.9408 25.6509 55.9116 25.7677 55.9992 25.8553Z" fill="#01B47E"/>
<g clip-path="url(#clip0_14_43086)">
<path d="M20.2546 22.3576C21.1693 20.982 22.084 19.6064 23.0068 18.2307C24.3066 16.2968 25.6144 14.3628 26.9063 12.4289C27.0186 12.2589 27.1389 12.1052 27.3155 12C27.4519 12 27.5963 12 27.7327 12C27.7327 12.0162 27.7327 12.0405 27.7327 12.0566C27.5802 12.2428 27.5883 12.4693 27.5883 12.6878C27.5883 15.4391 27.5883 18.1903 27.5883 20.9415C27.5883 21.1196 27.5963 21.3057 27.5642 21.4837C27.4759 21.8883 27.2432 22.1877 26.9223 22.4304C25.6626 23.361 24.2584 23.8708 22.6858 23.8789C22.1723 23.8789 21.6508 23.9355 21.1372 23.8222C20.5916 23.7009 20.2466 23.3205 20.1744 22.7622C20.1584 22.6166 20.2546 22.5033 20.2546 22.3576Z" fill="white"/>
<path d="M27.5 21.5646C27.5 18.522 27.5 15.4795 27.5 12.4369C27.5 12.267 27.4439 12.0485 27.7407 12.0566C27.8932 12.1133 27.9654 12.2508 28.0537 12.3722C30.7095 16.321 33.3653 20.2699 36.0292 24.2268C36.3662 24.7204 36.2939 25.0117 35.7644 25.2949C33.1727 26.6706 30.5731 28.0462 27.9814 29.4137C27.8691 29.4703 27.7648 29.5432 27.6284 29.5513C27.492 29.4946 27.4358 29.3894 27.4198 29.2438C27.4118 29.1629 27.4118 29.0819 27.4118 29.001C27.4118 26.7272 27.4118 24.4534 27.4118 22.1796C27.4037 21.9773 27.4519 21.7669 27.5 21.5646Z" fill="white"/>
<path d="M27.5 21.5646C27.5 24.0731 27.5 26.5896 27.5 29.0981C27.5 29.26 27.492 29.4218 27.6203 29.5513C27.4438 29.6079 27.2914 29.5432 27.1309 29.4623C24.4831 28.0543 21.8273 26.6544 19.1795 25.2464C18.7462 25.0198 18.6659 24.7042 18.9387 24.3077C19.372 23.6604 19.8133 23.013 20.2546 22.3576C20.2626 22.657 20.2626 22.9564 20.4231 23.2396C20.6638 23.6604 21.065 23.7818 21.4822 23.7979C22.7259 23.8546 23.9696 23.8141 25.149 23.3286C25.8551 23.0373 26.5131 22.6893 27.0988 22.1877C27.2994 22.0177 27.3796 21.7831 27.5 21.5646Z" fill="white"/>
<path d="M27.6202 36.3485C30.0434 35.0457 32.4585 33.751 34.8816 32.4563C35.0742 32.3511 35.2828 32.1326 35.4995 32.3673C35.7241 32.61 35.4674 32.7881 35.339 32.9661C32.9239 36.1867 30.5007 39.3991 28.0776 42.6197C27.9974 42.7249 27.9412 42.8463 27.8048 42.8948C27.5881 42.9757 27.4838 42.8625 27.4277 42.6763C27.4036 42.5873 27.4036 42.4983 27.4036 42.4093C27.4036 40.5563 27.4036 38.7032 27.4036 36.8502C27.4036 36.6398 27.3956 36.4375 27.6202 36.3485Z" fill="white"/>
<path d="M18.5456 27.7954C18.7061 27.7792 18.8425 27.8763 18.9789 27.9491C21.723 29.3976 24.467 30.8541 27.2031 32.3106C27.4197 32.432 27.5802 32.432 27.8049 32.3106C30.565 30.8379 33.3412 29.3733 36.1013 27.9006C36.342 27.7711 36.5747 27.7225 36.7994 27.9006C36.9759 28.0381 37.0241 28.2242 36.9839 28.4427C36.9438 28.6774 36.7673 28.7907 36.5747 28.8878C35.0021 29.7212 33.4295 30.5547 31.8488 31.3882C30.549 32.076 29.2491 32.7638 27.9493 33.4597C27.6203 33.6377 27.3556 33.6296 27.0266 33.4516C24.1782 31.9303 21.3137 30.4171 18.4413 28.904C18.2006 28.7745 17.992 28.6369 18 28.3213C18.008 28.0139 18.2327 27.7954 18.5456 27.7954Z" fill="white"/>
<path d="M23.8894 38.5333C23.2234 37.7403 22.6377 36.8906 22.0038 36.0734C21.2014 35.0214 20.4071 33.9614 19.6128 32.9013C19.5726 32.8528 19.5406 32.8042 19.5085 32.7557C19.4122 32.6343 19.3721 32.5048 19.4844 32.3754C19.5967 32.2378 19.7492 32.254 19.8936 32.3268C20.2787 32.5291 20.6719 32.7395 21.057 32.9499C22.7661 33.8643 24.4671 34.7787 26.1761 35.7011C26.2644 35.7497 26.3446 35.8063 26.4248 35.863C26.6094 36.0491 26.6174 36.2676 26.5292 36.5022C26.136 37.5137 25.4299 38.1853 24.4029 38.509C24.2264 38.5495 24.0579 38.5495 23.8894 38.5333Z" fill="white"/>
<path d="M23.8893 38.5333C24.1781 38.4119 24.4991 38.42 24.796 38.2743C25.6465 37.8616 26.2161 37.2224 26.505 36.3161C26.5612 36.1381 26.4328 36.0086 26.4248 35.8549C26.6655 35.9762 26.9062 36.0976 27.1389 36.2271C27.2913 36.3161 27.4518 36.3566 27.6283 36.3485C27.54 36.4537 27.5079 36.5669 27.5079 36.7045C27.516 38.6385 27.516 40.5724 27.5079 42.5064C27.5079 42.733 27.5641 42.8867 27.8128 42.8867C27.4759 43.0809 27.2592 43.0324 27.0025 42.6844C26.168 41.5758 25.3335 40.4672 24.4991 39.3586C24.2905 39.0835 24.0899 38.8084 23.8893 38.5333Z" fill="white"/>
</g>
<defs>
<clipPath id="clip0_14_43086">
<rect width="19" height="31" fill="white" transform="translate(18 12)"/>
</clipPath>
</defs>
</svg>
