<svg width="56" height="56" viewBox="0 0 56 56" fill="none" xmlns="http://www.w3.org/2000/svg">
<path d="M55.9992 25.8553C55.9992 25.9575 55.9992 26.0743 55.9992 26.1765C55.9262 26.2494 55.9554 26.3516 55.9408 26.4392C55.9554 26.5706 55.897 26.7166 55.9992 26.8333C55.9992 27.0085 55.9992 27.1983 55.9992 27.3735C55.9116 27.8114 55.9116 28.2493 55.9992 28.6873C55.9992 28.9354 55.9992 29.1982 55.9992 29.4463C55.9262 29.5485 55.9262 29.6653 55.9992 29.7675C55.9992 29.9427 55.9992 30.1324 55.9992 30.3076C55.8677 31.0813 55.897 31.8841 55.8093 32.6724C55.5609 34.8183 54.9181 36.862 54.0853 38.8472C52.5658 42.4821 50.3743 45.6498 47.5106 48.3941C43.5951 52.1457 38.9636 54.5252 33.6893 55.6638C32.6958 55.8828 31.6731 55.8536 30.665 55.9265C30.5481 55.9411 30.402 55.8828 30.2997 55.9849C30.1974 55.9849 30.0805 55.9849 29.9783 55.9849C29.876 55.9119 29.7591 55.9119 29.6568 55.9849C29.4377 55.9849 29.2185 55.9849 28.9994 55.9849C28.7802 55.8974 28.5611 55.8974 28.3419 55.9849C28.0205 55.9849 27.6845 55.9849 27.363 55.9849C27.1439 55.8974 26.9247 55.8974 26.7056 55.9849C26.3841 55.9849 26.0481 55.9849 25.7267 55.9849C24.9377 55.8536 24.1488 55.8828 23.3598 55.7952C20.8907 55.5032 18.5676 54.7295 16.3176 53.7077C13.8485 52.5837 11.5547 51.1677 9.53845 49.3576C7.98976 47.9708 6.54334 46.4964 5.31607 44.8031C3.519 42.3215 2.11641 39.6355 1.16674 36.7306C0.46545 34.5993 0.0855818 32.4243 0.0271406 30.1616C-0.0166904 27.972 -0.0313007 25.7823 0.173244 23.5927C0.363178 21.6366 0.94759 19.7389 1.64888 17.8996C2.86154 14.7902 4.52712 11.9291 6.74788 9.4329C9.84527 5.95865 13.5563 3.31646 17.9394 1.65233C19.9118 0.907845 21.9426 0.280144 24.0611 0.134168C26.0335 -0.0118094 28.0059 -0.0264071 29.9783 0.0319837C31.8484 0.0903745 33.6893 0.294742 35.501 0.791064C39.475 1.90049 43.0545 3.7398 46.1957 6.41118C50.2866 9.90002 53.1941 14.1771 54.8888 19.2717C55.5609 21.3008 55.9408 23.3737 55.9554 25.505C55.9408 25.6509 55.9116 25.7677 55.9992 25.8553Z" fill="#F6921A"/>
<path d="M36.4127 26.1045C37.3775 26.3749 38.1937 26.6549 38.932 27.1523C40.5311 28.2653 41.022 29.8717 41.0454 31.7092C41.0541 32.8705 40.9028 33.9992 40.4493 35.0728C39.593 37.0704 37.9405 38.0724 35.9657 38.6619C34.7211 39.0408 33.4414 39.2325 32.1494 39.3218C31.7033 39.3507 31.6244 39.5078 31.6277 39.915C31.6761 41.3377 31.6747 42.7436 31.709 44.1701C31.7112 44.5171 31.6568 44.6526 31.2596 44.6381C30.5114 44.6119 29.7708 44.6139 29.0312 44.676C28.5889 44.719 28.5257 44.5394 28.53 44.1605C28.5211 42.7725 28.4699 41.3958 28.4789 40.0182C28.4888 39.547 28.3174 39.4721 27.9137 39.4895C27.4075 39.5194 26.8974 39.5352 26.3902 39.5049C26.0212 39.4828 25.9207 39.6156 25.937 39.9588C25.9817 41.3674 25.984 42.7873 26.0325 44.2101C26.0498 44.6135 25.9172 44.7397 25.5201 44.7252C24.7757 44.7131 24.0247 44.7329 23.2775 44.7669C22.9341 44.7834 22.8398 44.6575 22.8452 44.3387C22.8353 42.8905 22.7755 41.4255 22.7797 39.9736C22.7765 39.5664 22.6371 39.4979 22.2795 39.5182C20.4906 39.5593 18.7223 39.5646 16.9334 39.6057C16.5118 39.6128 16.348 39.5661 16.4463 39.0863C16.6327 38.1447 16.755 37.1901 16.8773 36.2354C16.9147 35.9232 17.019 35.8046 17.3559 35.8201C17.9234 35.8494 18.4899 35.8185 19.0461 35.8055C20.0483 35.7636 20.4319 35.3888 20.4187 34.3798C20.3399 29.852 20.2649 25.3383 20.1861 20.8105C20.1701 19.8476 19.5926 19.2165 18.642 19.1689C17.9042 19.1248 17.157 19.1588 16.4061 19.1786C16.1228 19.1941 16.0296 19.1284 16.0246 18.8275C16.0285 17.9952 16.0145 17.1527 15.9722 16.3177C15.9549 15.9143 16.0875 15.7881 16.4808 15.7885C18.2773 15.7756 20.0766 15.7166 21.8872 15.7C22.2947 15.6966 22.3633 15.5573 22.3573 15.1962C22.3088 13.7735 22.3103 12.3676 22.2618 10.9449C22.2445 10.5415 22.4204 10.4642 22.7677 10.4618C23.4942 10.4636 24.2207 10.4654 24.95 10.4211C25.3217 10.3971 25.4545 10.4975 25.4539 10.8906C25.4515 12.2363 25.5093 13.5809 25.5068 14.9266C25.5007 15.4118 25.6589 15.5508 26.1294 15.5003C26.5999 15.4498 27.078 15.4275 27.5391 15.455C27.9862 15.4864 28.0678 15.2831 28.0505 14.8797C28.003 13.5172 28.0017 12.1574 27.9684 10.7911C27.9596 10.4761 28.014 10.3406 28.3792 10.3485C29.1415 10.371 29.9103 10.3614 30.6679 10.3096C31.0819 10.2742 31.1413 10.4396 31.1473 10.8007C31.1487 12.1605 31.2281 13.5296 31.1975 14.8828C31.1924 15.4282 31.3892 15.5418 31.8682 15.5796C33.1632 15.6709 34.4254 15.9221 35.6315 16.415C38.4577 17.5921 39.7801 20.6079 38.7261 23.5048C38.3197 24.6414 37.5319 25.4268 36.4127 26.1045Z" fill="#FEFEFE"/>
<path d="M31.8401 35.1732C29.8285 35.6819 28.0424 35.6769 26.2637 35.7001C26.0369 35.7004 25.9578 35.631 25.9538 35.3902C25.9292 33.266 25.8904 31.1455 25.8516 29.025C25.841 28.8162 25.9106 28.7371 26.1195 28.7265C27.9752 28.6524 29.8272 28.5642 31.6589 28.9651C32.2708 29.1034 32.8516 29.2953 33.378 29.6228C35.2472 30.7843 35.2506 33.3374 33.4025 34.5127C32.8166 34.8662 32.2108 35.0889 31.8401 35.1732Z" fill="#F6921A"/>
<path d="M30.3192 25.1527C28.9399 25.5374 27.5189 25.5403 26.1017 25.5574C25.8287 25.5549 25.76 25.4676 25.7663 25.209C25.7494 23.3395 25.7184 21.4739 25.6733 19.612C25.6627 19.4032 25.6814 19.2471 25.9364 19.2392C27.6472 19.1889 29.3533 19.0642 31.0139 19.6167C32.3431 20.0615 33.0668 20.9557 33.1188 22.1659C33.169 23.4823 32.4764 24.4538 31.1133 24.955C30.8451 25.0269 30.5732 25.0846 30.3192 25.1527Z" fill="#F6921A"/>
</svg>
