<svg width="14" height="26" viewBox="0 0 14 26" fill="none" xmlns="http://www.w3.org/2000/svg">
<path d="M2.33339 25.8333C1.90502 25.8342 1.48989 25.685 1.16005 25.4117C0.974412 25.2578 0.820959 25.0687 0.70848 24.8554C0.596001 24.6421 0.526708 24.4087 0.504569 24.1686C0.48243 23.9285 0.50788 23.6864 0.579462 23.4561C0.651043 23.2258 0.767348 23.0119 0.921719 22.8267L9.13505 13L1.21505 3.155C1.06277 2.96748 0.949041 2.7517 0.880416 2.52008C0.811791 2.28845 0.789619 2.04555 0.815175 1.80534C0.84073 1.56512 0.913507 1.33232 1.02933 1.12032C1.14514 0.908316 1.30172 0.721294 1.49005 0.570003C1.67974 0.403103 1.90188 0.277212 2.14252 0.200232C2.38317 0.123252 2.63714 0.0968455 2.88847 0.122668C3.13981 0.14849 3.3831 0.225985 3.60306 0.350288C3.82303 0.474591 4.01493 0.64302 4.16672 0.845003L13.0217 11.845C13.2914 12.173 13.4388 12.5845 13.4388 13.0092C13.4388 13.4338 13.2914 13.8453 13.0217 14.1733L3.85505 25.1733C3.67114 25.3952 3.43751 25.5706 3.17312 25.6853C2.90874 25.7999 2.62105 25.8507 2.33339 25.8333Z" fill="white"/>
</svg>
