<svg width="1440" height="1780" viewBox="0 0 1440 1780" fill="none" xmlns="http://www.w3.org/2000/svg">
<path opacity="0.25" fill-rule="evenodd" clip-rule="evenodd" d="M90.7838 1145.97C64.9214 1161.09 42.0194 1180.44 24.282 1204.58C-70.3174 1333.33 -357.395 1773.28 18.2698 1918.49C278.27 2018.99 1115.82 2137.68 1499.77 1864.49C1591.72 1799.07 1514.47 1348.56 1461.69 1091.76C1439.72 984.868 1349.01 907.364 1240.26 898.343L684.28 852.224C632.467 847.926 580.587 859.695 535.7 885.93L90.7838 1145.97Z" fill="url(#paint0_linear_0_192)"/>
<mask id="mask0_0_192" style="mask-type:alpha" maskUnits="userSpaceOnUse" x="-170" y="851" width="1713" height="1182">
<path fill-rule="evenodd" clip-rule="evenodd" d="M90.7839 1145.97C64.9214 1161.09 42.0194 1180.44 24.2821 1204.58C-70.3173 1333.33 -357.395 1773.28 18.2699 1918.49C278.27 2018.99 1115.82 2137.68 1499.77 1864.49C1591.72 1799.07 1514.47 1348.56 1461.69 1091.76C1439.72 984.868 1349.01 907.364 1240.26 898.343L684.28 852.224C632.467 847.926 580.587 859.695 535.701 885.93L90.7839 1145.97Z" fill="white"/>
</mask>
<g mask="url(#mask0_0_192)">
</g>
<defs>
<linearGradient id="paint0_linear_0_192" x1="-509.506" y1="1530.68" x2="-38.0684" y2="97.2329" gradientUnits="userSpaceOnUse">
<stop stop-color="#6A1B9A"/>
<stop offset="1" stop-color="#FF6F00"/>
</linearGradient>
</defs>
</svg>
