<svg width="23" height="29" viewBox="0 0 23 29" fill="none" xmlns="http://www.w3.org/2000/svg">
<path fill-rule="evenodd" clip-rule="evenodd" d="M11 16C9.89547 16 9.00003 16.8954 9.00003 18C9.00003 18.9319 9.63741 19.7149 10.5 19.937V22H11.5V19.937C12.3627 19.7149 13 18.9319 13 18C13 16.8954 12.1046 16 11 16ZM11 19C10.4487 19 10 18.5514 10 18C10 17.4486 10.4487 17 11 17C11.5514 17 12 17.4486 12 18C12 18.5514 11.5514 19 11 19Z" fill="black" fill-opacity="0.38"/>
<path fill-rule="evenodd" clip-rule="evenodd" d="M4.95003 7C4.95003 3.73403 7.66456 1.07693 11.0011 1.07693C14.3365 1.07693 17.05 3.73403 17.05 7L17.0896 11.7083H18.0862L18.15 7C18.15 3.13452 14.9489 4.5076e-06 11.0011 4.5076e-06C7.05117 4.5076e-06 3.85003 3.13452 3.85003 7V11.8462H3.39821e-05V28H22V11.8462H4.95003V7ZM21 27H1.00003V13H21V27Z" fill="black" fill-opacity="0.38"/>
</svg>
