<svg width="29" height="29" viewBox="0 0 29 29" fill="none" xmlns="http://www.w3.org/2000/svg">
<path fill-rule="evenodd" clip-rule="evenodd" d="M14.5 1.5C16.2554 1.5 17.9578 1.84356 19.5599 2.52119C21.1078 3.17594 22.4982 4.11344 23.6924 5.30762C24.8866 6.50181 25.8241 7.89225 26.4788 9.44012C27.1564 11.0422 27.5 12.7446 27.5 14.5C27.5 16.2554 27.1564 17.9578 26.4788 19.5599C25.8241 21.1078 24.8866 22.4982 23.6924 23.6924C22.4982 24.8866 21.1077 25.8241 19.5599 26.4788C17.9578 27.1564 16.2554 27.5 14.5 27.5C12.7446 27.5 11.0422 27.1564 9.44012 26.4788C7.89219 25.8241 6.50181 24.8866 5.30762 23.6924C4.11344 22.4982 3.17594 21.1077 2.52119 19.5599C1.84356 17.9578 1.5 16.2554 1.5 14.5C1.5 12.7446 1.84356 11.0422 2.52119 9.44012C3.17594 7.89219 4.11344 6.50181 5.30762 5.30762C6.50181 4.11344 7.89225 3.17594 9.44012 2.52119C11.0422 1.84356 12.7446 1.5 14.5 1.5ZM14.5 0.5C6.768 0.5 0.5 6.768 0.5 14.5C0.5 22.232 6.768 28.5 14.5 28.5C22.232 28.5 28.5 22.232 28.5 14.5C28.5 6.768 22.232 0.5 14.5 0.5Z" fill="black" fill-opacity="0.38"/>
<path fill-rule="evenodd" clip-rule="evenodd" d="M5.16084 18.6517C3.58621 18.6517 2.59374 17.5014 2.54797 17.4472C2.37082 17.2377 2.39825 16.9252 2.60921 16.7493C2.8196 16.5739 3.13306 16.6004 3.31059 16.8084C3.34826 16.8521 4.22137 17.8433 5.53087 17.6306C6.28563 17.5082 7.28184 16.0292 7.94108 15.0506C8.20615 14.657 8.43507 14.3172 8.64041 14.0618C9.68631 12.7607 10.7542 12.6068 11.4667 12.7071C12.972 12.9187 14.2327 14.4217 14.8146 15.8175C15.2794 16.9327 16.002 17.5795 16.8492 17.6389C17.81 17.705 18.8158 17.0225 19.537 15.8096C19.6136 15.6809 19.6968 15.5292 19.7851 15.3687C20.3764 14.2923 21.2701 12.6655 23.0121 12.6655C24.9542 12.6655 26.2519 14.8035 26.3062 14.8945C26.4467 15.1299 26.3683 15.4338 26.1313 15.5733C25.8943 15.7128 25.5883 15.6349 25.4478 15.3996C25.4455 15.3957 25.1677 14.9373 24.7084 14.4912C24.3164 14.1103 23.7039 13.6564 23.0121 13.6564C21.8623 13.6564 21.1962 14.8689 20.6609 15.8432C20.5686 16.0114 20.4813 16.1702 20.3962 16.3133C19.4784 17.8567 18.1264 18.7224 16.7789 18.6272C15.5348 18.5401 14.5098 17.6768 13.8928 16.1966C13.2684 14.6987 12.1294 13.801 11.3269 13.6881C10.6659 13.5949 10.0239 13.9288 9.42011 14.6799C9.24103 14.9027 9.01236 15.2422 8.77029 15.6015C7.92542 16.8557 6.87397 18.4166 5.69175 18.6085C5.50835 18.6383 5.33114 18.6517 5.16084 18.6517Z" fill="black" fill-opacity="0.38"/>
</svg>
