<svg width="15" height="22" viewBox="0 0 15 22" fill="none" xmlns="http://www.w3.org/2000/svg">
<path fill-rule="evenodd" clip-rule="evenodd" d="M10.5858 1.51571C11.2371 2.05186 12.6 3.17961 12.6 5.32541C12.6 7.41354 11.4087 8.40114 10.2173 9.33118C9.84718 9.69853 9.422 10.0931 9.422 10.7142C9.422 11.3352 9.84713 11.6746 10.1593 11.9275L11.1807 12.7174C12.4301 13.7611 13.5651 14.7216 13.5651 16.668C13.5651 19.3204 10.9819 22 6.10081 22C1.98572 22 -7.62939e-06 20.0535 -7.62939e-06 17.9653C-7.62939e-06 16.9497 0.511145 15.5115 2.18531 14.5231C3.94341 13.4513 6.32938 13.3105 7.60497 13.2257C7.2081 12.7174 6.7545 12.1804 6.7545 11.3072C6.7545 10.827 6.89588 10.5453 7.03759 10.2067C6.72531 10.2347 6.41375 10.2627 6.12973 10.2627C3.12153 10.2627 1.41828 8.03373 1.41828 5.83357C1.41828 4.53539 2.01552 3.09557 3.23488 2.05186C4.85315 0.725694 6.78347 0.5 8.3145 0.5H14.16L12.344 1.51571H10.5858ZM8.55979 14.0289C8.33262 14 8.19276 14 7.91222 14C7.65803 14 6.13591 14.0578 4.95272 14.464C4.33221 14.6972 2.52856 15.3935 2.52856 17.4568C2.52856 19.5193 4.47207 21 7.48928 21C10.1955 21 11.6314 19.6652 11.6314 17.8639C11.6315 16.3814 10.7023 15.5978 8.55979 14.0289ZM9.41774 8.71341C10.059 8.06782 10.1143 7.16906 10.1143 6.66433C10.1143 4.64376 8.91654 1.5 6.60713 1.5C5.88375 1.5 5.10364 1.86462 4.65765 2.42666C4.18465 3.01661 4.04571 3.77374 4.04571 4.50292C4.04571 6.3833 5.13059 9.5 7.52531 9.5C8.22087 9.49994 8.97088 9.16251 9.41774 8.71341Z" fill="white"/>
</svg>
