<svg width="373" height="220" viewBox="0 0 373 220" fill="none" xmlns="http://www.w3.org/2000/svg">
<circle cx="273" cy="35" r="10" fill="#3BAF53"/>
<path d="M299.148 41V29.3636H303.602C304.443 29.3636 305.142 29.4962 305.699 29.7614C306.259 30.0227 306.678 30.3807 306.955 30.8352C307.235 31.2898 307.375 31.8049 307.375 32.3807C307.375 32.8542 307.284 33.2595 307.102 33.5966C306.92 33.9299 306.676 34.2008 306.369 34.4091C306.062 34.6174 305.72 34.767 305.341 34.858V34.9716C305.754 34.9943 306.15 35.1212 306.528 35.3523C306.911 35.5795 307.223 35.9015 307.466 36.3182C307.708 36.7348 307.83 37.2386 307.83 37.8295C307.83 38.4318 307.684 38.9735 307.392 39.4545C307.1 39.9318 306.661 40.3087 306.074 40.5852C305.487 40.8617 304.748 41 303.858 41H299.148ZM301.256 39.2386H303.523C304.288 39.2386 304.839 39.0928 305.176 38.8011C305.517 38.5057 305.688 38.1269 305.688 37.6648C305.688 37.3201 305.602 37.0095 305.432 36.733C305.261 36.4527 305.019 36.233 304.705 36.0739C304.39 35.911 304.015 35.8295 303.58 35.8295H301.256V39.2386ZM301.256 34.3125H303.341C303.705 34.3125 304.032 34.2462 304.324 34.1136C304.616 33.9773 304.845 33.786 305.011 33.5398C305.182 33.2898 305.267 32.9943 305.267 32.6534C305.267 32.2027 305.108 31.8314 304.79 31.5398C304.475 31.2481 304.008 31.1023 303.386 31.1023H301.256V34.3125ZM309.572 41V32.2727H311.629V41H309.572ZM310.607 31.0341C310.281 31.0341 310 30.9261 309.766 30.7102C309.531 30.4905 309.413 30.2273 309.413 29.9205C309.413 29.6098 309.531 29.3466 309.766 29.1307C310 28.911 310.281 28.8011 310.607 28.8011C310.936 28.8011 311.216 28.911 311.447 29.1307C311.682 29.3466 311.8 29.6098 311.8 29.9205C311.8 30.2273 311.682 30.4905 311.447 30.7102C311.216 30.9261 310.936 31.0341 310.607 31.0341ZM318.102 32.2727V33.8636H313.085V32.2727H318.102ZM314.324 30.1818H316.381V38.375C316.381 38.6515 316.422 38.8636 316.506 39.0114C316.593 39.1553 316.706 39.2538 316.847 39.3068C316.987 39.3598 317.142 39.3864 317.312 39.3864C317.441 39.3864 317.559 39.3769 317.665 39.358C317.775 39.339 317.858 39.322 317.915 39.3068L318.261 40.9148C318.152 40.9527 317.994 40.9943 317.79 41.0398C317.589 41.0852 317.343 41.1117 317.051 41.1193C316.536 41.1345 316.072 41.0568 315.659 40.8864C315.246 40.7121 314.919 40.4432 314.676 40.0795C314.438 39.7159 314.32 39.2614 314.324 38.7159V30.1818ZM323.536 41.1705C322.664 41.1705 321.916 40.9792 321.291 40.5966C320.67 40.214 320.191 39.6856 319.854 39.0114C319.52 38.3333 319.354 37.553 319.354 36.6705C319.354 35.7841 319.524 35.0019 319.865 34.3239C320.206 33.642 320.687 33.1117 321.308 32.733C321.933 32.3504 322.672 32.1591 323.524 32.1591C324.232 32.1591 324.859 32.2898 325.405 32.5511C325.954 32.8087 326.392 33.1742 326.717 33.6477C327.043 34.1174 327.229 34.6667 327.274 35.2955H325.308C325.229 34.875 325.039 34.5246 324.74 34.2443C324.445 33.9602 324.049 33.8182 323.553 33.8182C323.132 33.8182 322.763 33.9318 322.445 34.1591C322.126 34.3826 321.878 34.7045 321.7 35.125C321.526 35.5455 321.439 36.0492 321.439 36.6364C321.439 37.2311 321.526 37.7424 321.7 38.1705C321.875 38.5947 322.119 38.9223 322.433 39.1534C322.751 39.3807 323.125 39.4943 323.553 39.4943C323.856 39.4943 324.126 39.4375 324.365 39.3239C324.607 39.2064 324.81 39.0379 324.973 38.8182C325.136 38.5985 325.248 38.3314 325.308 38.017H327.274C327.225 38.6345 327.043 39.1818 326.729 39.6591C326.414 40.1326 325.986 40.5038 325.445 40.7727C324.903 41.0379 324.267 41.1705 323.536 41.1705ZM332.77 41.1705C331.918 41.1705 331.179 40.983 330.554 40.608C329.929 40.233 329.444 39.7083 329.099 39.0341C328.759 38.3598 328.588 37.572 328.588 36.6705C328.588 35.7689 328.759 34.9792 329.099 34.3011C329.444 33.6231 329.929 33.0966 330.554 32.7216C331.179 32.3466 331.918 32.1591 332.77 32.1591C333.622 32.1591 334.361 32.3466 334.986 32.7216C335.611 33.0966 336.094 33.6231 336.435 34.3011C336.779 34.9792 336.952 35.7689 336.952 36.6705C336.952 37.572 336.779 38.3598 336.435 39.0341C336.094 39.7083 335.611 40.233 334.986 40.608C334.361 40.983 333.622 41.1705 332.77 41.1705ZM332.781 39.5227C333.243 39.5227 333.63 39.3958 333.94 39.142C334.251 38.8845 334.482 38.5398 334.634 38.108C334.789 37.6761 334.866 37.1951 334.866 36.6648C334.866 36.1307 334.789 35.6477 334.634 35.2159C334.482 34.7803 334.251 34.4337 333.94 34.1761C333.63 33.9186 333.243 33.7898 332.781 33.7898C332.308 33.7898 331.914 33.9186 331.599 34.1761C331.289 34.4337 331.056 34.7803 330.901 35.2159C330.749 35.6477 330.673 36.1307 330.673 36.6648C330.673 37.1951 330.749 37.6761 330.901 38.108C331.056 38.5398 331.289 38.8845 331.599 39.142C331.914 39.3958 332.308 39.5227 332.781 39.5227ZM338.697 41V32.2727H340.754V41H338.697ZM339.732 31.0341C339.406 31.0341 339.125 30.9261 338.891 30.7102C338.656 30.4905 338.538 30.2273 338.538 29.9205C338.538 29.6098 338.656 29.3466 338.891 29.1307C339.125 28.911 339.406 28.8011 339.732 28.8011C340.061 28.8011 340.341 28.911 340.572 29.1307C340.807 29.3466 340.925 29.6098 340.925 29.9205C340.925 30.2273 340.807 30.4905 340.572 30.7102C340.341 30.9261 340.061 31.0341 339.732 31.0341ZM344.926 35.8864V41H342.869V32.2727H344.835V33.7557H344.938C345.138 33.267 345.458 32.8788 345.898 32.5909C346.341 32.303 346.888 32.1591 347.54 32.1591C348.142 32.1591 348.667 32.2879 349.114 32.5455C349.564 32.803 349.913 33.1761 350.159 33.6648C350.409 34.1534 350.532 34.7462 350.528 35.4432V41H348.472V35.7614C348.472 35.178 348.32 34.7216 348.017 34.392C347.718 34.0625 347.303 33.8977 346.773 33.8977C346.413 33.8977 346.093 33.9773 345.812 34.1364C345.536 34.2917 345.318 34.517 345.159 34.8125C345.004 35.108 344.926 35.4659 344.926 35.8864Z" fill="white"/>
<circle cx="273" cy="135" r="10" fill="#FF971D"/>
<path d="M299.148 141V129.364H301.256V139.233H306.381V141H299.148ZM308.119 141V132.273H310.176V141H308.119ZM309.153 131.034C308.828 131.034 308.547 130.926 308.312 130.71C308.078 130.491 307.96 130.227 307.96 129.92C307.96 129.61 308.078 129.347 308.312 129.131C308.547 128.911 308.828 128.801 309.153 128.801C309.483 128.801 309.763 128.911 309.994 129.131C310.229 129.347 310.347 129.61 310.347 129.92C310.347 130.227 310.229 130.491 309.994 130.71C309.763 130.926 309.483 131.034 309.153 131.034ZM316.649 132.273V133.864H311.632V132.273H316.649ZM312.871 130.182H314.928V138.375C314.928 138.652 314.969 138.864 315.053 139.011C315.14 139.155 315.253 139.254 315.393 139.307C315.534 139.36 315.689 139.386 315.859 139.386C315.988 139.386 316.106 139.377 316.212 139.358C316.321 139.339 316.405 139.322 316.462 139.307L316.808 140.915C316.698 140.953 316.541 140.994 316.337 141.04C316.136 141.085 315.89 141.112 315.598 141.119C315.083 141.134 314.619 141.057 314.206 140.886C313.793 140.712 313.465 140.443 313.223 140.08C312.984 139.716 312.867 139.261 312.871 138.716V130.182ZM322.139 141.17C321.264 141.17 320.509 140.989 319.872 140.625C319.24 140.258 318.753 139.739 318.412 139.068C318.071 138.394 317.901 137.6 317.901 136.688C317.901 135.79 318.071 135.002 318.412 134.324C318.757 133.642 319.238 133.112 319.855 132.733C320.473 132.35 321.198 132.159 322.031 132.159C322.569 132.159 323.077 132.246 323.554 132.42C324.035 132.591 324.459 132.856 324.827 133.216C325.198 133.576 325.49 134.034 325.702 134.591C325.914 135.144 326.02 135.803 326.02 136.568V137.199H318.866V135.812H324.048C324.045 135.419 323.959 135.068 323.793 134.761C323.626 134.451 323.393 134.206 323.094 134.028C322.798 133.85 322.454 133.761 322.06 133.761C321.639 133.761 321.27 133.864 320.952 134.068C320.634 134.269 320.385 134.534 320.207 134.864C320.033 135.189 319.944 135.547 319.94 135.938V137.148C319.94 137.655 320.033 138.091 320.219 138.455C320.404 138.814 320.664 139.091 320.997 139.284C321.33 139.473 321.721 139.568 322.168 139.568C322.467 139.568 322.738 139.527 322.98 139.443C323.223 139.356 323.433 139.229 323.611 139.062C323.789 138.896 323.923 138.689 324.014 138.443L325.935 138.659C325.813 139.167 325.582 139.61 325.241 139.989C324.904 140.364 324.473 140.655 323.946 140.864C323.42 141.068 322.817 141.17 322.139 141.17ZM331.567 141.17C330.696 141.17 329.947 140.979 329.322 140.597C328.701 140.214 328.222 139.686 327.885 139.011C327.552 138.333 327.385 137.553 327.385 136.67C327.385 135.784 327.555 135.002 327.896 134.324C328.237 133.642 328.718 133.112 329.339 132.733C329.964 132.35 330.703 132.159 331.555 132.159C332.264 132.159 332.891 132.29 333.436 132.551C333.985 132.809 334.423 133.174 334.749 133.648C335.074 134.117 335.26 134.667 335.305 135.295H333.339C333.26 134.875 333.071 134.525 332.771 134.244C332.476 133.96 332.08 133.818 331.584 133.818C331.163 133.818 330.794 133.932 330.476 134.159C330.158 134.383 329.91 134.705 329.732 135.125C329.557 135.545 329.47 136.049 329.47 136.636C329.47 137.231 329.557 137.742 329.732 138.17C329.906 138.595 330.15 138.922 330.464 139.153C330.783 139.381 331.156 139.494 331.584 139.494C331.887 139.494 332.158 139.437 332.396 139.324C332.639 139.206 332.841 139.038 333.004 138.818C333.167 138.598 333.279 138.331 333.339 138.017H335.305C335.256 138.634 335.074 139.182 334.76 139.659C334.446 140.133 334.018 140.504 333.476 140.773C332.934 141.038 332.298 141.17 331.567 141.17ZM340.801 141.17C339.949 141.17 339.21 140.983 338.585 140.608C337.96 140.233 337.475 139.708 337.131 139.034C336.79 138.36 336.619 137.572 336.619 136.67C336.619 135.769 336.79 134.979 337.131 134.301C337.475 133.623 337.96 133.097 338.585 132.722C339.21 132.347 339.949 132.159 340.801 132.159C341.653 132.159 342.392 132.347 343.017 132.722C343.642 133.097 344.125 133.623 344.466 134.301C344.811 134.979 344.983 135.769 344.983 136.67C344.983 137.572 344.811 138.36 344.466 139.034C344.125 139.708 343.642 140.233 343.017 140.608C342.392 140.983 341.653 141.17 340.801 141.17ZM340.812 139.523C341.275 139.523 341.661 139.396 341.972 139.142C342.282 138.884 342.513 138.54 342.665 138.108C342.82 137.676 342.898 137.195 342.898 136.665C342.898 136.131 342.82 135.648 342.665 135.216C342.513 134.78 342.282 134.434 341.972 134.176C341.661 133.919 341.275 133.79 340.812 133.79C340.339 133.79 339.945 133.919 339.631 134.176C339.32 134.434 339.087 134.78 338.932 135.216C338.78 135.648 338.705 136.131 338.705 136.665C338.705 137.195 338.78 137.676 338.932 138.108C339.087 138.54 339.32 138.884 339.631 139.142C339.945 139.396 340.339 139.523 340.812 139.523ZM346.729 141V132.273H348.786V141H346.729ZM347.763 131.034C347.437 131.034 347.157 130.926 346.922 130.71C346.687 130.491 346.57 130.227 346.57 129.92C346.57 129.61 346.687 129.347 346.922 129.131C347.157 128.911 347.437 128.801 347.763 128.801C348.092 128.801 348.373 128.911 348.604 129.131C348.839 129.347 348.956 129.61 348.956 129.92C348.956 130.227 348.839 130.491 348.604 130.71C348.373 130.926 348.092 131.034 347.763 131.034ZM352.957 135.886V141H350.901V132.273H352.866V133.756H352.969C353.17 133.267 353.49 132.879 353.929 132.591C354.372 132.303 354.92 132.159 355.571 132.159C356.173 132.159 356.698 132.288 357.145 132.545C357.596 132.803 357.944 133.176 358.19 133.665C358.44 134.153 358.563 134.746 358.56 135.443V141H356.503V135.761C356.503 135.178 356.351 134.722 356.048 134.392C355.749 134.062 355.334 133.898 354.804 133.898C354.444 133.898 354.124 133.977 353.844 134.136C353.567 134.292 353.349 134.517 353.19 134.812C353.035 135.108 352.957 135.466 352.957 135.886Z" fill="white"/>
<circle cx="273" cy="185" r="10" fill="#F6BC00"/>
<path d="M299.148 191V179.364H306.716V181.131H301.256V184.29H306.324V186.057H301.256V189.233H306.761V191H299.148ZM313.134 182.273V183.864H308.116V182.273H313.134ZM309.355 180.182H311.412V188.375C311.412 188.652 311.454 188.864 311.537 189.011C311.624 189.155 311.738 189.254 311.878 189.307C312.018 189.36 312.173 189.386 312.344 189.386C312.473 189.386 312.59 189.377 312.696 189.358C312.806 189.339 312.889 189.322 312.946 189.307L313.293 190.915C313.183 190.953 313.026 190.994 312.821 191.04C312.62 191.085 312.374 191.112 312.082 191.119C311.567 191.134 311.103 191.057 310.69 190.886C310.277 190.712 309.95 190.443 309.707 190.08C309.469 189.716 309.351 189.261 309.355 188.716V180.182ZM317.098 185.886V191H315.041V179.364H317.053V183.756H317.155C317.359 183.263 317.676 182.875 318.104 182.591C318.536 182.303 319.085 182.159 319.751 182.159C320.357 182.159 320.886 182.286 321.337 182.54C321.787 182.794 322.136 183.165 322.382 183.653C322.632 184.142 322.757 184.739 322.757 185.443V191H320.7V185.761C320.7 185.174 320.549 184.718 320.246 184.392C319.946 184.062 319.526 183.898 318.984 183.898C318.621 183.898 318.295 183.977 318.007 184.136C317.723 184.292 317.5 184.517 317.337 184.812C317.178 185.108 317.098 185.466 317.098 185.886ZM328.717 191.17C327.842 191.17 327.087 190.989 326.45 190.625C325.818 190.258 325.331 189.739 324.99 189.068C324.649 188.394 324.479 187.6 324.479 186.688C324.479 185.79 324.649 185.002 324.99 184.324C325.335 183.642 325.816 183.112 326.433 182.733C327.051 182.35 327.776 182.159 328.609 182.159C329.147 182.159 329.655 182.246 330.132 182.42C330.613 182.591 331.037 182.856 331.405 183.216C331.776 183.576 332.068 184.034 332.28 184.591C332.492 185.144 332.598 185.803 332.598 186.568V187.199H325.445V185.812H330.626C330.623 185.419 330.537 185.068 330.371 184.761C330.204 184.451 329.971 184.206 329.672 184.028C329.376 183.85 329.032 183.761 328.638 183.761C328.217 183.761 327.848 183.864 327.53 184.068C327.212 184.269 326.964 184.534 326.786 184.864C326.611 185.189 326.522 185.547 326.518 185.938V187.148C326.518 187.655 326.611 188.091 326.797 188.455C326.982 188.814 327.242 189.091 327.575 189.284C327.909 189.473 328.299 189.568 328.746 189.568C329.045 189.568 329.316 189.527 329.558 189.443C329.801 189.356 330.011 189.229 330.189 189.062C330.367 188.896 330.501 188.689 330.592 188.443L332.513 188.659C332.392 189.167 332.161 189.61 331.82 189.989C331.482 190.364 331.051 190.655 330.524 190.864C329.998 191.068 329.395 191.17 328.717 191.17ZM334.338 191V182.273H336.332V183.727H336.423C336.582 183.223 336.855 182.835 337.241 182.562C337.632 182.286 338.077 182.148 338.577 182.148C338.69 182.148 338.817 182.153 338.957 182.165C339.101 182.172 339.221 182.186 339.315 182.205V184.097C339.228 184.066 339.09 184.04 338.901 184.017C338.715 183.991 338.535 183.977 338.361 183.977C337.986 183.977 337.649 184.059 337.349 184.222C337.054 184.381 336.821 184.602 336.651 184.886C336.48 185.17 336.395 185.498 336.395 185.869V191H334.338ZM344.186 191.17C343.311 191.17 342.555 190.989 341.919 190.625C341.286 190.258 340.8 189.739 340.459 189.068C340.118 188.394 339.947 187.6 339.947 186.688C339.947 185.79 340.118 185.002 340.459 184.324C340.804 183.642 341.285 183.112 341.902 182.733C342.519 182.35 343.245 182.159 344.078 182.159C344.616 182.159 345.124 182.246 345.601 182.42C346.082 182.591 346.506 182.856 346.874 183.216C347.245 183.576 347.536 184.034 347.749 184.591C347.961 185.144 348.067 185.803 348.067 186.568V187.199H340.913V185.812H346.095C346.091 185.419 346.006 185.068 345.839 184.761C345.673 184.451 345.44 184.206 345.141 184.028C344.845 183.85 344.5 183.761 344.107 183.761C343.686 183.761 343.317 183.864 342.999 184.068C342.68 184.269 342.432 184.534 342.254 184.864C342.08 185.189 341.991 185.547 341.987 185.938V187.148C341.987 187.655 342.08 188.091 342.266 188.455C342.451 188.814 342.711 189.091 343.044 189.284C343.377 189.473 343.768 189.568 344.214 189.568C344.514 189.568 344.785 189.527 345.027 189.443C345.269 189.356 345.48 189.229 345.658 189.062C345.836 188.896 345.97 188.689 346.061 188.443L347.982 188.659C347.86 189.167 347.629 189.61 347.288 189.989C346.951 190.364 346.519 190.655 345.993 190.864C345.466 191.068 344.864 191.17 344.186 191.17ZM355.369 187.33V182.273H357.426V191H355.432V189.449H355.341C355.144 189.937 354.82 190.337 354.369 190.648C353.922 190.958 353.371 191.114 352.716 191.114C352.144 191.114 351.638 190.987 351.199 190.733C350.763 190.475 350.422 190.102 350.176 189.614C349.93 189.121 349.807 188.527 349.807 187.83V182.273H351.864V187.511C351.864 188.064 352.015 188.504 352.318 188.83C352.621 189.155 353.019 189.318 353.511 189.318C353.814 189.318 354.108 189.244 354.392 189.097C354.676 188.949 354.909 188.729 355.091 188.438C355.277 188.142 355.369 187.773 355.369 187.33ZM359.541 191V182.273H361.507V183.756H361.609C361.791 183.256 362.092 182.866 362.513 182.585C362.933 182.301 363.435 182.159 364.018 182.159C364.609 182.159 365.107 182.303 365.513 182.591C365.922 182.875 366.21 183.263 366.376 183.756H366.467C366.661 183.271 366.986 182.884 367.445 182.597C367.907 182.305 368.454 182.159 369.087 182.159C369.89 182.159 370.545 182.413 371.053 182.92C371.56 183.428 371.814 184.169 371.814 185.142V191H369.751V185.46C369.751 184.919 369.607 184.523 369.32 184.273C369.032 184.019 368.679 183.892 368.263 183.892C367.767 183.892 367.378 184.047 367.098 184.358C366.821 184.665 366.683 185.064 366.683 185.557V191H364.666V185.375C364.666 184.924 364.53 184.564 364.257 184.295C363.988 184.027 363.636 183.892 363.2 183.892C362.905 183.892 362.636 183.968 362.393 184.119C362.151 184.267 361.958 184.477 361.814 184.75C361.67 185.019 361.598 185.333 361.598 185.693V191H359.541Z" fill="white"/>
<circle cx="273" cy="85" r="10" fill="#F84747"/>
<path d="M299.148 79.3636H301.727L305.182 87.7955H305.318L308.773 79.3636H311.352V91H309.33V83.0057H309.222L306.006 90.9659H304.494L301.278 82.9886H301.17V91H299.148V79.3636ZM317.364 91.1705C316.511 91.1705 315.773 90.983 315.148 90.608C314.523 90.233 314.038 89.7083 313.693 89.0341C313.352 88.3598 313.182 87.572 313.182 86.6705C313.182 85.7689 313.352 84.9792 313.693 84.3011C314.038 83.6231 314.523 83.0966 315.148 82.7216C315.773 82.3466 316.511 82.1591 317.364 82.1591C318.216 82.1591 318.955 82.3466 319.58 82.7216C320.205 83.0966 320.688 83.6231 321.028 84.3011C321.373 84.9792 321.545 85.7689 321.545 86.6705C321.545 87.572 321.373 88.3598 321.028 89.0341C320.688 89.7083 320.205 90.233 319.58 90.608C318.955 90.983 318.216 91.1705 317.364 91.1705ZM317.375 89.5227C317.837 89.5227 318.223 89.3958 318.534 89.142C318.845 88.8845 319.076 88.5398 319.227 88.108C319.383 87.6761 319.46 87.1951 319.46 86.6648C319.46 86.1307 319.383 85.6477 319.227 85.2159C319.076 84.7803 318.845 84.4337 318.534 84.1761C318.223 83.9186 317.837 83.7898 317.375 83.7898C316.902 83.7898 316.508 83.9186 316.193 84.1761C315.883 84.4337 315.65 84.7803 315.494 85.2159C315.343 85.6477 315.267 86.1307 315.267 86.6648C315.267 87.1951 315.343 87.6761 315.494 88.108C315.65 88.5398 315.883 88.8845 316.193 89.142C316.508 89.3958 316.902 89.5227 317.375 89.5227ZM325.348 85.8864V91H323.291V82.2727H325.257V83.7557H325.359C325.56 83.267 325.88 82.8788 326.32 82.5909C326.763 82.303 327.31 82.1591 327.962 82.1591C328.564 82.1591 329.089 82.2879 329.536 82.5455C329.986 82.803 330.335 83.1761 330.581 83.6648C330.831 84.1534 330.954 84.7462 330.95 85.4432V91H328.893V85.7614C328.893 85.178 328.742 84.7216 328.439 84.392C328.14 84.0625 327.725 83.8977 327.195 83.8977C326.835 83.8977 326.515 83.9773 326.234 84.1364C325.958 84.2917 325.74 84.517 325.581 84.8125C325.426 85.108 325.348 85.4659 325.348 85.8864ZM336.905 91.1705C336.03 91.1705 335.274 90.9886 334.638 90.625C334.005 90.2576 333.518 89.7386 333.178 89.0682C332.837 88.3939 332.666 87.6004 332.666 86.6875C332.666 85.7898 332.837 85.0019 333.178 84.3239C333.522 83.642 334.003 83.1117 334.621 82.733C335.238 82.3504 335.964 82.1591 336.797 82.1591C337.335 82.1591 337.842 82.2462 338.32 82.4205C338.801 82.5909 339.225 82.8561 339.592 83.2159C339.964 83.5758 340.255 84.0341 340.467 84.5909C340.679 85.1439 340.786 85.803 340.786 86.5682V87.1989H333.632V85.8125H338.814C338.81 85.4186 338.725 85.0682 338.558 84.7614C338.392 84.4508 338.159 84.2064 337.859 84.0284C337.564 83.8504 337.219 83.7614 336.825 83.7614C336.405 83.7614 336.036 83.8636 335.717 84.0682C335.399 84.2689 335.151 84.5341 334.973 84.8636C334.799 85.1894 334.71 85.5473 334.706 85.9375V87.1477C334.706 87.6553 334.799 88.0909 334.984 88.4545C335.17 88.8144 335.429 89.0909 335.763 89.2841C336.096 89.4735 336.486 89.5682 336.933 89.5682C337.232 89.5682 337.503 89.5265 337.746 89.4432C337.988 89.3561 338.198 89.2292 338.376 89.0625C338.554 88.8958 338.689 88.6894 338.78 88.4432L340.7 88.6591C340.579 89.1667 340.348 89.6098 340.007 89.9886C339.67 90.3636 339.238 90.6553 338.712 90.8636C338.185 91.0682 337.583 91.1705 336.905 91.1705ZM342.526 91V82.2727H344.52V83.7273H344.611C344.77 83.2235 345.043 82.8352 345.429 82.5625C345.819 82.286 346.264 82.1477 346.764 82.1477C346.878 82.1477 347.005 82.1534 347.145 82.1648C347.289 82.1723 347.408 82.1856 347.503 82.2045V84.0966C347.416 84.0663 347.277 84.0398 347.088 84.017C346.902 83.9905 346.723 83.9773 346.548 83.9773C346.173 83.9773 345.836 84.0587 345.537 84.2216C345.241 84.3807 345.009 84.6023 344.838 84.8864C344.668 85.1705 344.582 85.4981 344.582 85.8693V91H342.526ZM352.317 91.1705C351.464 91.1705 350.726 90.983 350.101 90.608C349.476 90.233 348.991 89.7083 348.646 89.0341C348.305 88.3598 348.135 87.572 348.135 86.6705C348.135 85.7689 348.305 84.9792 348.646 84.3011C348.991 83.6231 349.476 83.0966 350.101 82.7216C350.726 82.3466 351.464 82.1591 352.317 82.1591C353.169 82.1591 353.908 82.3466 354.533 82.7216C355.158 83.0966 355.641 83.6231 355.982 84.3011C356.326 84.9792 356.499 85.7689 356.499 86.6705C356.499 87.572 356.326 88.3598 355.982 89.0341C355.641 89.7083 355.158 90.233 354.533 90.608C353.908 90.983 353.169 91.1705 352.317 91.1705ZM352.328 89.5227C352.79 89.5227 353.177 89.3958 353.487 89.142C353.798 88.8845 354.029 88.5398 354.18 88.108C354.336 87.6761 354.413 87.1951 354.413 86.6648C354.413 86.1307 354.336 85.6477 354.18 85.2159C354.029 84.7803 353.798 84.4337 353.487 84.1761C353.177 83.9186 352.79 83.7898 352.328 83.7898C351.855 83.7898 351.461 83.9186 351.146 84.1761C350.836 84.4337 350.603 84.7803 350.447 85.2159C350.296 85.6477 350.22 86.1307 350.22 86.6648C350.22 87.1951 350.296 87.6761 350.447 88.108C350.603 88.5398 350.836 88.8845 351.146 89.142C351.461 89.3958 351.855 89.5227 352.328 89.5227Z" fill="white"/>
<circle cx="110" cy="110" r="51" stroke="white" stroke-opacity="0.05" stroke-width="12"/>
<path d="M110 161C81.8335 161 59 138.167 59 110C59 81.8335 81.8335 59 110 59" stroke="#BE9203" stroke-width="10" stroke-linecap="round"/>
<circle cx="110" cy="110" r="68" stroke="white" stroke-opacity="0.05" stroke-width="12"/>
<path d="M110.188 178C72.5289 178 42 147.555 42 110C42 72.4446 72.5289 42 110.188 42C126.869 42 142.151 47.973 154 57.8913" stroke="#FF971D" stroke-width="10" stroke-linecap="round"/>
<circle cx="110" cy="110" r="86" stroke="white" stroke-opacity="0.05" stroke-width="12"/>
<path d="M110.287 196C62.6318 196 24 157.496 24 110C24 62.5035 62.6318 24 110.287 24C149.375 24 182.392 49.9046 193 85.4286" stroke="#F84747" stroke-width="10" stroke-linecap="round"/>
<circle cx="110" cy="110" r="104" stroke="white" stroke-opacity="0.05" stroke-width="12"/>
<path d="M110 214C52.5624 214 6 167.438 6 110C6 52.5624 52.5624 6 110 6C167.438 6 214 52.5624 214 110C214 113.187 213.857 116.341 213.576 119.455" stroke="#3BAF53" stroke-width="10" stroke-linecap="round"/>
<path d="M86.6946 121.298C85.1108 121.298 83.7045 121.032 82.4759 120.499C81.2543 119.967 80.2955 119.239 79.5994 118.315C78.9105 117.385 78.5696 116.33 78.5767 115.151C78.5696 114.235 78.7685 113.393 79.1733 112.626C79.5781 111.859 80.125 111.22 80.8139 110.709C81.5099 110.19 82.2841 109.86 83.1364 109.718V109.569C82.0142 109.32 81.1051 108.749 80.4091 107.854C79.7202 106.952 79.3793 105.911 79.3864 104.732C79.3793 103.61 79.6918 102.609 80.3239 101.728C80.956 100.847 81.8224 100.155 82.9233 99.6506C84.0241 99.1392 85.2813 98.8835 86.6946 98.8835C88.0938 98.8835 89.3402 99.1392 90.4339 99.6506C91.5348 100.155 92.4013 100.847 93.0334 101.728C93.6726 102.609 93.9922 103.61 93.9922 104.732C93.9922 105.911 93.6406 106.952 92.9375 107.854C92.2415 108.749 91.343 109.32 90.2422 109.569V109.718C91.0945 109.86 91.8615 110.19 92.5433 110.709C93.2322 111.22 93.7791 111.859 94.1839 112.626C94.5959 113.393 94.8018 114.235 94.8018 115.151C94.8018 116.33 94.4538 117.385 93.7578 118.315C93.0618 119.239 92.103 119.967 90.8814 120.499C89.6669 121.032 88.2713 121.298 86.6946 121.298ZM86.6946 118.251C87.5114 118.251 88.2216 118.113 88.8253 117.836C89.429 117.552 89.8977 117.154 90.2315 116.643C90.5653 116.131 90.7358 115.542 90.7429 114.874C90.7358 114.178 90.5547 113.564 90.1996 113.031C89.8516 112.491 89.3722 112.069 88.7614 111.763C88.1577 111.458 87.4688 111.305 86.6946 111.305C85.9134 111.305 85.2173 111.458 84.6065 111.763C83.9957 112.069 83.5128 112.491 83.1577 113.031C82.8097 113.564 82.6392 114.178 82.6463 114.874C82.6392 115.542 82.8026 116.131 83.1364 116.643C83.4702 117.147 83.9389 117.541 84.5426 117.825C85.1534 118.109 85.8707 118.251 86.6946 118.251ZM86.6946 108.312C87.3622 108.312 87.9517 108.177 88.4631 107.907C88.9815 107.637 89.3899 107.261 89.6882 106.778C89.9865 106.295 90.1392 105.737 90.1463 105.105C90.1392 104.48 89.9901 103.933 89.6989 103.464C89.4077 102.989 89.0028 102.623 88.4844 102.367C87.9659 102.104 87.3693 101.973 86.6946 101.973C86.0057 101.973 85.3984 102.104 84.8729 102.367C84.3544 102.623 83.9496 102.989 83.6584 103.464C83.3743 103.933 83.2358 104.48 83.2429 105.105C83.2358 105.737 83.3778 106.295 83.669 106.778C83.9673 107.254 84.3757 107.63 84.8942 107.907C85.4197 108.177 86.0199 108.312 86.6946 108.312ZM105.879 98.8835C106.923 98.8906 107.938 99.0753 108.926 99.4375C109.92 99.7926 110.815 100.375 111.61 101.185C112.406 101.987 113.038 103.063 113.507 104.413C113.975 105.762 114.21 107.431 114.21 109.42C114.217 111.295 114.018 112.971 113.613 114.448C113.215 115.918 112.644 117.161 111.898 118.177C111.152 119.192 110.254 119.967 109.203 120.499C108.151 121.032 106.969 121.298 105.655 121.298C104.277 121.298 103.056 121.028 101.99 120.489C100.932 119.949 100.076 119.21 99.4228 118.273C98.7694 117.335 98.3681 116.263 98.2189 115.055H102.107C102.306 115.922 102.711 116.611 103.322 117.122C103.94 117.626 104.718 117.879 105.655 117.879C107.168 117.879 108.333 117.222 109.149 115.908C109.966 114.594 110.374 112.768 110.374 110.432H110.225C109.877 111.057 109.426 111.597 108.872 112.051C108.318 112.499 107.69 112.843 106.987 113.085C106.291 113.326 105.552 113.447 104.771 113.447C103.492 113.447 102.342 113.141 101.319 112.531C100.303 111.92 99.4973 111.082 98.9007 110.016C98.3113 108.951 98.013 107.733 98.0059 106.362C98.0059 104.942 98.3326 103.667 98.986 102.538C99.6465 101.401 100.566 100.506 101.745 99.853C102.924 99.1925 104.302 98.8693 105.879 98.8835ZM105.889 102.08C105.122 102.08 104.43 102.268 103.812 102.644C103.201 103.013 102.718 103.518 102.363 104.157C102.015 104.789 101.841 105.496 101.841 106.277C101.848 107.051 102.022 107.754 102.363 108.386C102.711 109.018 103.183 109.519 103.78 109.888C104.384 110.258 105.073 110.442 105.847 110.442C106.422 110.442 106.958 110.332 107.455 110.112C107.953 109.892 108.386 109.587 108.755 109.196C109.132 108.798 109.423 108.347 109.629 107.843C109.842 107.339 109.945 106.806 109.938 106.245C109.938 105.499 109.76 104.81 109.405 104.178C109.057 103.546 108.578 103.038 107.967 102.655C107.363 102.271 106.671 102.08 105.889 102.08ZM129.423 116.909V115.759C129.423 114.913 129.6 114.136 129.955 113.425C130.318 112.715 130.843 112.143 131.532 111.71C132.221 111.277 133.056 111.06 134.036 111.06C135.044 111.06 135.889 111.277 136.571 111.71C137.253 112.136 137.768 112.705 138.116 113.415C138.471 114.125 138.649 114.906 138.649 115.759V116.909C138.649 117.754 138.471 118.532 138.116 119.242C137.761 119.952 137.239 120.524 136.55 120.957C135.868 121.391 135.03 121.607 134.036 121.607C133.041 121.607 132.2 121.391 131.511 120.957C130.822 120.524 130.3 119.952 129.945 119.242C129.597 118.532 129.423 117.754 129.423 116.909ZM132.203 115.759V116.909C132.203 117.47 132.338 117.985 132.608 118.454C132.878 118.923 133.354 119.157 134.036 119.157C134.725 119.157 135.197 118.926 135.453 118.464C135.715 117.996 135.847 117.477 135.847 116.909V115.759C135.847 115.19 135.722 114.672 135.474 114.203C135.225 113.727 134.746 113.489 134.036 113.489C133.368 113.489 132.896 113.727 132.619 114.203C132.342 114.672 132.203 115.19 132.203 115.759ZM118.333 104.423V103.273C118.333 102.42 118.514 101.639 118.876 100.929C119.238 100.219 119.764 99.6506 120.453 99.2244C121.142 98.7912 121.976 98.5746 122.956 98.5746C123.958 98.5746 124.799 98.7912 125.481 99.2244C126.17 99.6506 126.688 100.219 127.036 100.929C127.384 101.639 127.558 102.42 127.558 103.273V104.423C127.558 105.276 127.381 106.057 127.026 106.767C126.678 107.47 126.159 108.035 125.47 108.461C124.781 108.887 123.943 109.1 122.956 109.1C121.955 109.1 121.11 108.887 120.421 108.461C119.739 108.035 119.22 107.467 118.865 106.756C118.51 106.046 118.333 105.268 118.333 104.423ZM121.134 103.273V104.423C121.134 104.991 121.266 105.51 121.529 105.979C121.798 106.44 122.274 106.671 122.956 106.671C123.638 106.671 124.107 106.44 124.362 105.979C124.625 105.51 124.757 104.991 124.757 104.423V103.273C124.757 102.705 124.632 102.186 124.384 101.717C124.135 101.241 123.659 101.004 122.956 101.004C122.281 101.004 121.809 101.241 121.539 101.717C121.269 102.193 121.134 102.712 121.134 103.273ZM119.547 121L134.547 99.1818H137.21L122.21 121H119.547Z" fill="white"/>
</svg>
