<svg width="56" height="56" viewBox="0 0 56 56" fill="none" xmlns="http://www.w3.org/2000/svg">
<path d="M55.9992 25.8553C55.9992 25.9575 55.9992 26.0743 55.9992 26.1765C55.9262 26.2494 55.9554 26.3516 55.9408 26.4392C55.9554 26.5706 55.897 26.7166 55.9992 26.8333C55.9992 27.0085 55.9992 27.1983 55.9992 27.3735C55.9116 27.8114 55.9116 28.2493 55.9992 28.6873C55.9992 28.9354 55.9992 29.1982 55.9992 29.4463C55.9262 29.5485 55.9262 29.6653 55.9992 29.7675C55.9992 29.9427 55.9992 30.1324 55.9992 30.3076C55.8677 31.0813 55.897 31.8841 55.8093 32.6724C55.5609 34.8183 54.9181 36.862 54.0853 38.8472C52.5658 42.4821 50.3743 45.6498 47.5106 48.3941C43.5951 52.1457 38.9636 54.5252 33.6893 55.6638C32.6958 55.8828 31.6731 55.8536 30.665 55.9265C30.5481 55.9411 30.402 55.8828 30.2997 55.9849C30.1974 55.9849 30.0805 55.9849 29.9783 55.9849C29.876 55.9119 29.7591 55.9119 29.6568 55.9849C29.4377 55.9849 29.2185 55.9849 28.9994 55.9849C28.7802 55.8974 28.5611 55.8974 28.3419 55.9849C28.0205 55.9849 27.6845 55.9849 27.363 55.9849C27.1439 55.8974 26.9247 55.8974 26.7056 55.9849C26.3841 55.9849 26.0481 55.9849 25.7267 55.9849C24.9377 55.8536 24.1488 55.8828 23.3598 55.7952C20.8907 55.5032 18.5676 54.7295 16.3176 53.7077C13.8485 52.5837 11.5547 51.1677 9.53845 49.3576C7.98976 47.9708 6.54334 46.4964 5.31607 44.8031C3.519 42.3215 2.11641 39.6355 1.16674 36.7306C0.46545 34.5993 0.0855818 32.4243 0.0271406 30.1616C-0.0166904 27.972 -0.0313007 25.7823 0.173244 23.5927C0.363178 21.6366 0.94759 19.7389 1.64888 17.8996C2.86154 14.7902 4.52712 11.9291 6.74788 9.4329C9.84527 5.95865 13.5563 3.31646 17.9394 1.65233C19.9118 0.907845 21.9426 0.280144 24.0611 0.134168C26.0335 -0.0118094 28.0059 -0.0264071 29.9783 0.0319837C31.8484 0.0903745 33.6893 0.294742 35.501 0.791064C39.475 1.90049 43.0545 3.7398 46.1957 6.41118C50.2866 9.90002 53.1941 14.1771 54.8888 19.2717C55.5609 21.3008 55.9408 23.3737 55.9554 25.505C55.9408 25.6509 55.9116 25.7677 55.9992 25.8553Z" fill="#F9BC2D"/>
<g clip-path="url(#clip0_14_43112)">
<path d="M40.204 38.8458C40.204 39.9238 40.1772 41.0149 40.2174 42.0929C40.2307 42.5662 40.1638 42.8422 39.6015 42.7765C39.4275 42.8948 39.2401 43 38.9991 42.9869C38.1959 42.9869 37.406 43.0132 36.6028 42.9606C35.7059 42.9737 34.7956 43.0263 33.8986 42.9606C33.1623 42.9869 32.426 42.9869 31.6763 42.9869C30.94 42.9474 30.2038 43.0132 29.4675 42.9869C29.2667 42.9869 29.0792 43 28.8784 42.9737C27.9145 42.9869 26.9507 43.0132 25.9734 42.9737C25.2371 42.9737 24.4874 43 23.7511 43C22.7337 42.9737 21.7297 43.0132 20.7123 43C20.3776 43 20.0429 42.9869 19.7618 42.7634C19.6547 42.5793 19.7618 42.4084 19.8153 42.2507C20.4044 40.1998 21.0068 38.1359 21.6092 36.085C21.636 35.993 21.6494 35.901 21.6627 35.7958C21.5289 35.4803 21.6494 35.1911 21.7297 34.8887C22.051 33.7713 22.3857 32.667 22.7069 31.5495C22.8007 31.1683 22.9211 30.8002 23.0282 30.4189C23.1353 30.0114 23.0818 29.9457 22.6534 30.0377C20.98 30.3664 19.2932 30.695 17.6198 31.0237C17.3253 31.0763 17.0308 31.1551 16.7497 30.9711C16.4953 29.7748 16.2409 28.5653 15.9866 27.369C15.9197 27.0535 16.174 27.1061 16.3213 27.0798C17.7269 26.7905 19.1326 26.5145 20.5248 26.2384C21.7431 26.0018 22.9747 25.7388 24.1929 25.5285C24.5811 25.4628 24.7418 25.2919 24.8355 24.9238C25.9332 21.085 27.0578 17.2594 28.1555 13.4207C28.276 12.9869 28.4366 12.8948 28.865 13.0394C29.9896 13.4338 31.1275 13.6179 32.1984 14.0517C32.3323 14.3146 32.2386 14.5644 32.1717 14.8142C31.3283 17.7195 30.4983 20.638 29.6549 23.5434C29.5879 23.7537 29.3336 24.0298 29.695 24.2401C30.3912 24.2139 31.0471 23.9378 31.7299 23.8458C32.1851 23.78 32.6268 23.6354 33.0954 23.6091C33.7781 23.4645 34.4609 23.2936 35.157 23.1884C35.3177 23.1621 35.4783 23.1227 35.6389 23.149C35.9201 23.2016 36.0673 23.3593 36.1343 23.6223C36.2012 23.8852 36.2681 24.1613 36.2949 24.4373C36.4154 25.0815 36.5894 25.7125 36.6698 26.3699C36.8572 27.1192 36.7367 27.3032 35.9602 27.461C35.6925 27.5136 35.4114 27.5267 35.1436 27.5925C34.1128 27.8554 33.0686 28.0263 32.0244 28.1972C31.8905 28.2235 31.7701 28.2498 31.6496 28.2892C30.6455 28.4864 29.6415 28.6968 28.6241 28.8808C28.1957 28.9597 28.0083 29.17 27.9012 29.5513C27.62 30.5504 27.3255 31.5627 27.031 32.5618C26.9774 32.7327 26.9105 32.9036 26.857 33.0745C26.5223 34.3628 26.1608 35.638 25.7458 36.8869C25.6655 37.255 25.5584 37.61 25.4513 37.9781C25.3978 38.1621 25.2907 38.3462 25.4379 38.5302C25.6923 38.688 25.9734 38.7143 26.2545 38.7143C30.1636 38.7143 34.0726 38.7143 37.9951 38.7143C38.544 38.7143 39.0928 38.6091 39.6417 38.6486C39.8425 38.6486 40.0701 38.6354 40.204 38.8458Z" fill="#FEFEFE"/>
</g>
<defs>
<clipPath id="clip0_14_43112">
<rect width="24.2308" height="30" fill="white" transform="translate(16 13)"/>
</clipPath>
</defs>
</svg>
