<svg width="16" height="18" viewBox="0 0 16 18" fill="none" xmlns="http://www.w3.org/2000/svg">
<path fill-rule="evenodd" clip-rule="evenodd" d="M11.7505 1.43197C11.7505 0.879682 11.3028 0.431967 10.7505 0.431967C10.1982 0.431967 9.75049 0.879682 9.75049 1.43197V1.94817H5.75V1.43197C5.75 0.879682 5.30228 0.431967 4.75 0.431967C4.19772 0.431967 3.75 0.879682 3.75 1.43197V1.94817H2.5C1.10919 1.94817 0 3.08487 0 4.46437V7.49675V15.0778C0 16.4573 1.10919 17.594 2.5 17.594H13C14.3908 17.594 15.5 16.4573 15.5 15.0778V7.49675V4.46437C15.5 3.08487 14.3908 1.94817 13 1.94817H11.7505V1.43197ZM13.5 6.49675V4.46437C13.5 4.16913 13.266 3.94817 13 3.94817H11.7505V4.46436C11.7505 5.01665 11.3028 5.46436 10.7505 5.46436C10.1982 5.46436 9.75049 5.01665 9.75049 4.46436V3.94817H5.75V4.46436C5.75 5.01665 5.30228 5.46436 4.75 5.46436C4.19772 5.46436 3.75 5.01665 3.75 4.46436V3.94817H2.5C2.23396 3.94817 2 4.16913 2 4.46437V6.49675H13.5ZM2 8.49675H13.5V15.0778C13.5 15.373 13.266 15.594 13 15.594H2.5C2.23396 15.594 2 15.373 2 15.0778V8.49675Z" fill="white" fill-opacity="0.5"/>
</svg>
