<svg width="47" height="61" viewBox="0 0 47 61" fill="none" xmlns="http://www.w3.org/2000/svg">
<path fill-rule="evenodd" clip-rule="evenodd" d="M27.6476 8.62103C36.5944 10.1694 42.5913 16.5304 44.1305 25.4951H29.9046C28.6051 22.5756 26.0745 20.9073 23.0652 20.9073C18.4829 20.9073 15.6787 24.661 15.6787 30.5C15.6787 36.2695 18.4829 40.0927 22.9968 40.0927C26.0062 40.0927 28.6051 38.4244 29.8362 35.5049H44.0621C42.5821 44.4094 36.5932 50.8143 27.6476 52.3757V59H18.0725V52.223C7.98328 50.1019 2 41.6924 2 30.5C2 19.2477 7.98328 10.8814 18.0725 8.77349V2H27.6476V8.62103Z" fill="#FF971D" stroke="#181C1F" stroke-width="4"/>
</svg>
