<svg width="18" height="19" viewBox="0 0 18 19" fill="none" xmlns="http://www.w3.org/2000/svg">
<path d="M3.364 4L12.148 13.663L12.868 13.38C14.553 12.719 15.732 11.224 15.96 9.484C14.3342 9.59897 12.7244 9.09912 11.4497 8.08347C10.1749 7.06781 9.32813 5.61043 9.077 4H3.363H3.364ZM11 3C10.9999 3.78643 11.206 4.55914 11.5976 5.24113C11.9892 5.92312 12.5527 6.49058 13.2319 6.88695C13.9112 7.28332 14.6824 7.49477 15.4688 7.50021C16.2552 7.50566 17.0293 7.30492 17.714 6.918C17.9 7.536 18 8.189 18 8.865C18 11.756 16.178 14.229 13.6 15.242L17 19H0V2H11.111C11.0369 2.32816 10.9996 2.66357 11 3ZM15.5 5.5C14.837 5.5 14.2011 5.23661 13.7322 4.76777C13.2634 4.29893 13 3.66304 13 3C13 2.33696 13.2634 1.70107 13.7322 1.23223C14.2011 0.763392 14.837 0.5 15.5 0.5C16.163 0.5 16.7989 0.763392 17.2678 1.23223C17.7366 1.70107 18 2.33696 18 3C18 3.66304 17.7366 4.29893 17.2678 4.76777C16.7989 5.23661 16.163 5.5 15.5 5.5ZM2 5.47V17H12.48L2 5.47Z" fill="white" fill-opacity="0.6"/>
</svg>
